# xmcd CD database file
#
# Track frame offsets:
#	150
#	13102
#	26826
#	41762
#	54114
#	60463
#	73584
#	85208
#	92332
#	117532
#	126408
#	140197
#	156023
#	166407
#
# Disc length: 2410 seconds
#
# Revision: 0
# Processed by: cddbd v1.5.2PL0 Copyright (c) Steve Scherf et al.
# Submitted via: CDex 1.70beta2
#
DISCID=bf09680e
DTITLE=Agnikana's Group - Bhagaban
DYEAR=2003
DGENRE=New Age
TTITLE0=Ati sajatane
TTITLE1=Asaral deha
TTITLE2=Bhebechinu ami
TTITLE3=Amar sakal
TTITLE4=Kato jatil
TTITLE5=Ogo dayomoy
TTITLE6=The pride of the earthly race - I have the tears
TTITLE7=Kiter prane
TTITLE8=Bhagaban
TTITLE9=Tomar sathe
TTITLE10=Abanata shire
TTITLE11=Prabhu
TTITLE12=Shunya hate
TTITLE13=Tomar adesh
EXTD=YEAR: 2003
EXTT0=
EXTT1=
EXTT2=
EXTT3=
EXTT4=
EXTT5=
EXTT6=
EXTT7=
EXTT8=
EXTT9=
EXTT10=
EXTT11=
EXTT12=
EXTT13=
PLAYORDER=
